<?xml version="1.0" standalone="no"?><!DOCTYPE svg PUBLIC "-//W3C//DTD SVG 1.1//EN" "http://www.w3.org/Graphics/SVG/1.1/DTD/svg11.dtd"><svg t="1623129045661" class="icon" viewBox="0 0 1024 1024" version="1.1" xmlns="http://www.w3.org/2000/svg" p-id="13276" xmlns:xlink="http://www.w3.org/1999/xlink" width="200" height="200"><defs><style type="text/css"></style></defs><path d="M520.533 768l226.134-110.933c6.4-2.134 10.666-10.667 10.666-17.067V379.733c0-6.4-4.266-12.8-10.666-14.933L520.533 253.867c-4.266-2.134-10.666-2.134-14.933 0l-228.267 108.8c-2.133 2.133-6.4 4.266-8.533 8.533-2.133 2.133-4.267 6.4-4.267 10.667v256c0 8.533 4.267 12.8 10.667 17.066 2.133 2.134 2.133 2.134 4.267 2.134L505.6 768c2.133 2.133 4.267 2.133 8.533 2.133 2.134 0 4.267-2.133 6.4-2.133zM723.2 631.467l-194.133 93.866v-224L723.2 407.467v224zM324.267 379.733L514.133 288l187.734 91.733-187.734 89.6-189.866-89.6z" fill="#13227a" p-id="13277"></path><path d="M509.867 42.667C251.733 42.667 40.533 251.733 40.533 512s211.2 469.333 469.334 469.333S979.2 772.267 979.2 512 770.133 42.667 509.867 42.667z m0 913.066C264.533 955.733 66.133 755.2 66.133 512s198.4-445.867 443.734-445.867S953.6 266.667 953.6 509.867 755.2 955.733 509.867 955.733z" fill="#13227a" p-id="13278"></path><path d="M763.733 746.667l49.067 49.066c21.333-23.466 40.533-49.066 57.6-74.666L810.667 684.8c-12.8 21.333-29.867 42.667-46.934 61.867z m87.467-160l66.133 17.066c6.4-29.866 10.667-61.866 10.667-93.866h-68.267c0 25.6-4.266 51.2-8.533 76.8zM819.2 672l59.733 34.133c14.934-27.733 27.734-57.6 36.267-87.466L849.067 601.6c-8.534 23.467-19.2 46.933-29.867 70.4zM514.133 855.467v68.266c32 0 64-4.266 93.867-12.8L590.933 844.8c-23.466 6.4-49.066 8.533-76.8 10.667zM499.2 155.733V87.467c-32 0-61.867 4.266-91.733 12.8l17.066 66.133c25.6-6.4 49.067-8.533 74.667-10.667z m106.667 686.934l17.066 66.133c32-10.667 61.867-21.333 89.6-36.267L678.4 812.8c-23.467 12.8-46.933 21.333-72.533 29.867z m85.333-38.4L725.333 864c27.734-17.067 53.334-36.267 74.667-57.6l-46.933-49.067c-19.2 17.067-38.4 34.134-61.867 46.934zM328.533 206.933l-34.133-57.6c-25.6 14.934-51.2 34.134-72.533 55.467l46.933 46.933c19.2-17.066 38.4-32 59.733-44.8z m-234.666 288h68.266c0-25.6 4.267-51.2 10.667-74.666L106.667 403.2c-8.534 27.733-12.8 59.733-12.8 91.733z m765.866 0H928C921.6 268.8 740.267 89.6 514.133 87.467v68.266c187.734 2.134 341.334 151.467 345.6 339.2zM153.6 288l59.733 34.133c12.8-21.333 27.734-40.533 46.934-59.733L211.2 213.333C189.867 236.8 170.667 262.4 153.6 288z m-42.667 100.267l66.134 17.066c8.533-25.6 17.066-46.933 27.733-68.266l-59.733-34.134c-12.8 25.6-25.6 53.334-34.134 85.334z m300.8-217.6l-17.066-66.134c-29.867 8.534-59.734 21.334-85.334 36.267l32 59.733c21.334-12.8 44.8-21.333 70.4-29.866z" fill="#13227a" p-id="13279"></path></svg>